<?xml version="1.0" encoding="utf-8"?>
<!-- Generator: Adobe Illustrator 20.0.0, SVG Export Plug-In . SVG Version: 6.00 Build 0)  -->
<svg version="1.1" id="Layer_1" xmlns="http://www.w3.org/2000/svg" xmlns:xlink="http://www.w3.org/1999/xlink" x="0px" y="0px"
	 viewBox="0 0 1000 500" style="enable-background:new 0 0 1000 500;" xml:space="preserve">
<style type="text/css">
	.st0{fill:#FEFEFE;}
</style>
<path d="M745.1,132.6c52.1,0.4,96.6,20.4,136.4,52.6c21.5,17.4,40.2,37.4,56.3,59.9c2,2.8,3.4,5,0.7,8.6
	c-36,48.9-80,87.7-139.2,105.3c-61.2,18.2-118.2,5.7-171-28.4c-31-20-56.8-45.6-78.5-75.3c-2-2.8-4.4-5-1.2-9.3
	c37.1-50.2,82.9-88.6,144-106.2C709.7,134.9,727.2,132.6,745.1,132.6z"/>
<path d="M178.2,355.7c12.3-12.1,23.8-23.2,34.9-34.5c2.8-2.8,5-2.2,8.1-1c45.1,16.6,91.4-9.1,100.5-55.9c2.7-13.6,1.5-27.1-3.8-40.1
	c-1.5-3.7-1.7-6.2,1.5-9.3c14.2-13.7,28.2-27.7,42-41.9c3-3.1,4.9-3.1,8.3-0.7c29.2,20.7,54.2,45.5,75,74.6c2.1,3,2.4,4.9,0.1,8
	c-40.8,55-90.8,96.9-159.9,110.8C249.2,372.8,214.1,368.7,178.2,355.7z"/>
<path d="M319.2,145.8c-12.6,12.4-24.2,23.6-35.5,35.1c-3.3,3.4-5.9,1.5-8.9,0.4c-41.1-15.2-85.8,7.1-97.9,49.1
	c-4.6,16-4,32,2.3,47.5c1.6,4,1.2,6.3-1.9,9.3c-13.8,13.4-27.5,27-40.9,40.9c-3.5,3.7-5.8,3.3-9.5,0.6
	c-28.8-20.3-53.6-44.6-74.3-73.2c-2.2-3-3.1-5.1-0.5-8.6c39.5-53.2,88.3-93.6,154.3-109.1C244.1,128.9,281.2,131.8,319.2,145.8z"/>
<path d="M381.5,99.6c6.1,6.3,11.8,12.2,18.5,19.1c-2.1,1.6-4.7,3.3-6.8,5.4c-91.1,91-182.2,181.9-273.1,273.1
	c-4.4,4.4-6.8,4.1-10.4-0.3c-3.7-4.5-10.7-8.3-11.1-12.9c-0.3-3.7,7-8.1,11-12.1c89.6-89.5,179.2-179.1,268.8-268.6
	C379.5,102.3,380.4,101,381.5,99.6z"/>
<path class="st0" d="M817.5,250.3c-0.1,40.6-33.5,73.7-74.4,73.5c-40.6-0.1-73.7-33.5-73.5-74.4c0.1-40.6,33.5-73.7,74.4-73.5
	C784.6,176.1,817.7,209.5,817.5,250.3z"/>
<path d="M759,216.7c-3.9,6-4.6,12.1,0.9,17.4c5.3,5,11.2,4.1,16.8,0.4c7.9,16.6,2.9,35.4-12,45.9c-14.6,10.2-34.6,8.4-47.3-4.3
	c-12.7-12.7-14.5-32.7-4.3-47.3C723.5,213.9,742.3,208.8,759,216.7z"/>
</svg>
